<?xml version="1.0" encoding="utf-8"?>
<!-- Svg Vector Icons : http://www.onlinewebfonts.com/icon -->
<!DOCTYPE svg PUBLIC "-//W3C//DTD SVG 1.1//EN" "http://www.w3.org/Graphics/SVG/1.1/DTD/svg11.dtd">
<svg version="1.1" xmlns="http://www.w3.org/2000/svg" xmlns:xlink="http://www.w3.org/1999/xlink" x="0px" y="0px" viewBox="0 0 1000 1000" enable-background="new 0 0 1000 1000" xml:space="preserve">
<metadata> Svg Vector Icons : http://www.onlinewebfonts.com/icon </metadata>
<g><g transform="translate(0.000000,512.000000) scale(0.100000,-0.100000)"><path d="M118.3,4897.7C183.5,4613.9,358,4148,521,3825.9c345.1-690.2,812.9-1347.9,1673.8-2356.3c763.1-893.5,1344-1443.7,2638.2-2504c285.7-233.9,533-441,552.2-464c34.5-38.3,32.6-42.2-140-256.9c-433.3-538.8-719-1054.5-642.3-1158c90.1-124.6,730.5,258.8,1428.4,853.2l182.1,155.3l1094.8-1098.6C8523.7-4219,8401-4073.3,8495-4422.3c42.2-157.2,168.7-285.7,324-329.8c554.1-161.1,1217.5,502.3,1056.4,1056.4c-47.9,164.9-168.7,278-358.5,333.6c-187.9,53.7-243.5,76.7-322.1,128.5c-61.3,40.3-2110.9,2135.8-2124.4,2170.4c-1.9,7.7,72.9,107.4,168.7,220.5c471.6,559.8,811,1094.8,812.9,1286.5c1.9,76.7,1.9,76.7-74.8,82.4c-153.4,11.5-627-268.4-1100.5-650l-218.6-174.5L4604.8,1753.3L2551.4,3806.8l-163,21.1c-565.6,74.8-1002.7,232-1411.1,508.1c-161,109.3-487,364.3-776.5,607.8c-47.9,40.3-92,72.9-97.8,72.9C95.3,5016.6,103,4962.9,118.3,4897.7z M4167.7,1559.7l1902-1902L5968-443.9l-99.7-99.7L3964.4,1360.3c-1044.9,1046.8-1902,1909.6-1902,1917.3c0,67.1,111.2,186,172.6,186C2250.4,3463.6,3120.8,2606.5,4167.7,1559.7z"/></g></g>
</svg>